<?xml version="1.0" encoding="UTF-8"?><svg xmlns="http://www.w3.org/2000/svg" viewBox="0 0 213.88 213.88"><defs><style>.d{fill:#85e1cb;}</style></defs><g id="a"/><g id="b"><g id="c"><path class="d" d="M187.79,106.94c15.72-10.45,26.09-28.32,26.09-48.61C213.88,26.12,187.77,0,155.55,0c-20.29,0-38.16,10.37-48.61,26.09C96.49,10.37,78.63,0,58.33,0,26.12,0,0,26.12,0,58.33c0,20.29,10.37,38.16,26.09,48.61C10.37,117.39,0,135.26,0,155.55c0,32.22,26.12,58.33,58.33,58.33,20.29,0,38.16-10.37,48.61-26.09,10.45,15.72,28.32,26.09,48.61,26.09,32.22,0,58.33-26.12,58.33-58.33,0-20.29-10.37-38.16-26.09-48.61Zm-80.85,16.37c-4.31-6.49-9.88-12.06-16.37-16.37,6.49-4.31,12.06-9.88,16.37-16.37,4.31,6.49,9.88,12.06,16.37,16.37-6.49,4.31-12.06,9.88-16.37,16.37Z"/></g></g></svg>