<?xml version="1.0" encoding="UTF-8"?>
<!DOCTYPE svg PUBLIC "-//W3C//DTD SVG 1.1//EN" "http://www.w3.org/Graphics/SVG/1.1/DTD/svg11.dtd">
<svg xmlns="http://www.w3.org/2000/svg" version="1.1" width="400px" height="400px" style="shape-rendering:geometricPrecision; text-rendering:geometricPrecision; image-rendering:optimizeQuality; fill-rule:evenodd; clip-rule:evenodd" xmlns:xlink="http://www.w3.org/1999/xlink">
<g><path style="opacity:0.993" fill="#94a3b8" d="M 50.5,21.5 C 81.5697,18.2418 107.736,27.9084 129,50.5C 137.921,61.6774 143.587,74.3441 146,88.5C 146.028,155.857 146.694,223.191 148,290.5C 154.881,317.215 172.048,331.882 199.5,334.5C 226.986,331.843 244.153,317.176 251,290.5C 252.309,223.194 252.976,155.86 253,88.5C 261.997,50.5543 285.831,28.3876 324.5,22C 332.5,21.3333 340.5,21.3333 348.5,22C 349.416,22.3742 350.25,22.8742 351,23.5C 352.161,60.0835 352.661,96.7501 352.5,133.5C 352.441,193.837 351.941,254.171 351,314.5C 344.3,349.201 324.133,372.035 290.5,383C 253.134,391.271 222.8,380.437 199.5,350.5C 173.146,383.262 139.813,393.096 99.5,380C 70.845,367.678 53.6784,346.178 48,315.5C 47.3333,218.167 47.3333,120.833 48,23.5C 48.9947,22.9341 49.828,22.2674 50.5,21.5 Z M 70.5,41.5 C 70.56,40.9569 70.8933,40.6236 71.5,40.5C 83.5899,46.0905 92.0899,55.0905 97,67.5C 99.2772,73.3315 100.944,79.3315 102,85.5C 103.304,157.145 103.971,228.812 104,300.5C 107.427,326.929 122.26,342.763 148.5,348C 157.097,349.673 165.763,350.84 174.5,351.5C 173.088,352.806 171.421,353.64 169.5,354C 144.909,359.396 123.742,353.229 106,335.5C 98.2924,324.045 93.9591,311.379 93,297.5C 92.6667,226.833 92.3333,156.167 92,85.5C 91.0109,67.638 83.8442,52.9713 70.5,41.5 Z M 328.5,40.5 C 329.239,40.369 329.906,40.5357 330.5,41C 317.028,53.1128 309.862,68.2794 309,86.5C 308.667,157.167 308.333,227.833 308,298.5C 304.283,335.215 283.95,354.548 247,356.5C 241.81,355.831 236.644,354.997 231.5,354C 229.579,353.64 227.912,352.806 226.5,351.5C 245.742,351.443 263.409,346.276 279.5,336C 289.699,326.77 295.532,315.27 297,301.5C 297.029,229.812 297.696,158.145 299,86.5C 301.124,65.9393 310.957,50.6059 328.5,40.5 Z"/></g>
</svg>
