<?xml version="1.0" standalone="no"?>
<!DOCTYPE svg PUBLIC "-//W3C//DTD SVG 20010904//EN"
 "http://www.w3.org/TR/2001/REC-SVG-20010904/DTD/svg10.dtd">
<svg version="1.0" xmlns="http://www.w3.org/2000/svg"
 width="400.000000pt" height="400.000000pt" viewBox="0 0 400.000000 400.000000"
 preserveAspectRatio="xMidYMid meet">
<metadata>
Created by potrace 1.14, written by Peter Selinger 2001-2017
</metadata>
<g transform="translate(0.000000,400.000000) scale(0.100000,-0.100000)"
fill="#000000" stroke="none">
<path d="M1072 2164 l3 -969 42 -86 c68 -140 179 -234 332 -284 78 -25 214
-17 301 19 77 31 170 101 208 156 15 22 29 39 32 39 3 0 17 -17 32 -39 38 -55
131 -125 208 -156 87 -36 223 -44 301 -19 180 58 302 180 365 365 18 52 19
103 19 995 l0 940 -99 3 c-134 4 -221 -26 -330 -112 -52 -42 2 -142 -149
-213 -22 -57 -22 -69 -27 -728 -5 -632 -6 -673 -24 -715 -60 -139 -162 -213
-297 -213 -124 0 -224 68 -283 192 l-31 66 -5 675 -5 675 -27 63 c-54 126
-132 208 -257 270 -71 35 -80 37 -193 41 l-118 3 2 -968z m204 806 c35 -26 73
-85 96 -146 22 -58 23 -66 28 -779 5 -659 7 -724 24 -770 49 -138 149 -209
334 -237 64 -9 72 -12 52 -20 -45 -17 -171 -11 -234 11 -106 37 -169 104 -208
220 -22 65 -23 76 -28 806 -5 690 -6 743 -24 790 -26 70 -33 82 -80 134 -38
41 -38 44 -10 26 17 -11 39 -27 50 -35z m1481 10 c-47 -51 -74 -104 -92 -182
-12 -52 -15 -179 -15 -748 0 -739 -2 -766 -53 -866 -50 -98 -136 -155 -258
-173 -55 -7 -163 0 -175 12 -2 2 33 9 78 16 45 7 106 22 137 33 75 28 150 104
182 183 l24 60 5 715 c5 658 7 719 24 770 34 102 70 153 146 203 37 25 36 21
-3 -23z"/>
</g>
</svg>
